<svg height="436.296" viewBox="140.366 65.813 312.635 327.222" width="416.847" xmlns="http://www.w3.org/2000/svg"><path d="m284.39 66.52c15.79-1.6 32.81-.98 46.91 7.12 12.17 6.98 20.46 18.76 27.38 30.63 7.6 13.66 13.65 28.12 19.34 42.66 23.08 60.12 45.61 120.45 68.4 180.68 3.3 8.78 6.8 17.81 6.57 27.36-.01 11.98-5.99 24.32-16.56 30.41-6.83 4.09-14.54 7.13-22.62 7-60.58.98-121.18.65-181.77.35-18.03-.15-36.06-.33-54.09-.72-18.27-.15-35.3-15.14-37.34-33.39-.71-5.5.19-11.06 1.92-16.28 5.53-17.08 11.99-33.84 18.23-50.67 15.06-40.3 29.75-80.74 44.93-121 8.74-22.23 16.24-45.12 28.09-65.96 5.29-9.29 11.62-18.17 19.81-25.14 8.64-7.35 19.56-11.78 30.8-13.05m1.96 11.98c-7.28.66-14.42 3.13-20.29 7.56-10.1 7.63-18.59 17.48-24.18 28.88-8 15.97-14.19 32.76-20.66 49.39-22.04 58.09-43.04 116.57-65.32 174.56-1.93 5.15-2.46 10.69-2.41 16.15.03 3.82.24 7.84 2.25 11.21 4.78 8.62 14.6 13.62 24.29 13.84 17.64.68 35.29.4 52.93.65 58.34.16 116.68-.23 175.02-.19 4.46-.06 9.13.54 13.39-1.13 8.1-3.09 15.88-8.95 18.41-17.6 2.82-8.79-.4-17.92-3.44-26.18-22.73-61.02-46.02-121.82-69.34-182.62-6.56-16.59-12.9-33.46-22.48-48.61-5.27-8.42-11.98-16.34-20.94-20.96-11.42-5.85-24.73-6-37.23-4.95z" fill="#c75c2f" fill-rule="evenodd"/></svg>